# xmcd CD database file
#
# Track frame offsets:
#	150
#	24347
#	43515
#	45517
#	64425
#	84357
#	96987
#	115475
#	124312
#	136645
#	150687
#	167220
#	181515
#	202477
#	217232
#	230810
#	251450
#	291452
#	308012
#	327285
#
# Disc length: 4671 seconds
#
# Revision: 4
# Processed by: cddbd v1.5.1PL0 Copyright (c) Steve Scherf et al.
# Submitted via: CDex 1.51
#
DISCID=2a123d14
DTITLE=Barbra Streisand - Highlights
DYEAR=1995
DGENRE=Blues
TTITLE0=Overture
TTITLE1=As if we never said goodbye
TTITLE2=Opening remarks
TTITLE3=I'm still here - Everybody say's don't - Don't rain on my parade
TTITLE4=Can't help lovin' that man
TTITLE5=I'll know (with Marlon Brando)
TTITLE6=People
TTITLE7=Will he like me
TTITLE8=He touched me
TTITLE9=Evergreen
TTITLE10=The man that got away
TTITLE11=The way we were
TTITLE12=You don't bring me flowers
TTITLE13=Lady afternoon
TTITLE14=Not while I'm around
TTITLE15=Ordinary miracles
TTITLE16=Yentl Medley
TTITLE17=Happy days are here again
TTITLE18=My man
TTITLE19=Somewhere
EXTD=YEAR: 1995
EXTT0=
EXTT1=
EXTT2=
EXTT3=
EXTT4=
EXTT5=
EXTT6=
EXTT7=
EXTT8=
EXTT9=
EXTT10=
EXTT11=
EXTT12=
EXTT13=
EXTT14=
EXTT15=
EXTT16=
EXTT17=
EXTT18=
EXTT19=
PLAYORDER=
